<?xml version="1.0" encoding="UTF-8"?>
<svg width="1133px" height="715px" viewBox="0 0 1133 715" version="1.1" xmlns="http://www.w3.org/2000/svg" xmlns:xlink="http://www.w3.org/1999/xlink">
    <!-- Generator: Sketch 52.5 (67469) - http://www.bohemiancoding.com/sketch -->
    <title>Group</title>
    <desc>Created with Sketch.</desc>
    <g id="Page-1" stroke="none" stroke-width="1" fill="none" fill-rule="evenodd">
        <g id="Artboard" transform="translate(-657.000000, -100.000000)">
            <g id="Group" transform="translate(1222.535261, 461.350595) rotate(-8.000000) translate(-1222.535261, -461.350595) translate(568.535261, 165.850595)">
                <path d="M88.9130857,538.492584 C161.033751,498.257728 243.992403,458.093533 337.789041,418 C478.483999,357.8597 685.087603,351.903829 818.205503,320.828856 C906.95077,300.112207 1043.15281,196.942752 1226.81162,11.3204898 C1259.03543,95.3691132 1249.13806,152.070094 1197.11951,181.423433 C1119.09168,225.453442 1070.79013,141.998286 948.021441,178.263345 C825.252747,214.528404 541.97956,342 391.418219,441.703756 C240.856877,541.407513 88.8679108,455.11182 64.6256246,471.840479 C48.4641005,482.992918 56.5599208,505.210287 88.9130857,538.492584 Z" id="Path" fill-opacity="0.325017" fill="#3DCC4F"></path>
                <path d="M134.913796,537.581523 C221.060353,461.059008 306.948342,418.936435 392.577764,411.213804 C524.491923,399.316907 607.402954,357.874638 823.266989,299.470747 C888.743668,281.755463 899.080561,204.57872 1006.64846,199.989119 C1067.48356,197.393467 1174.14177,237.312626 1222.26721,194.670198 C1235.12646,183.276022 1214.22707,132.385402 1159.56904,41.9983381 C1145.14673,183.66282 1096.48448,251.977811 1013.58228,246.943311 C889.228969,239.391561 706.119642,345.239234 659.5,375.565181 C615.241478,404.355226 439.926281,464.360862 325.340159,465.215756 C210.754037,466.07065 129.982921,457.685722 114.312937,482.745758 C103.866282,499.452449 110.733234,517.731037 134.913796,537.581523 Z" id="Path-2" fill-opacity="0.128536" fill="#3A3A3A"></path>
                <path d="M134.463276,440.020654 C221.178842,435.935182 235.597872,333.177911 372.677698,302.126504 C509.757523,271.075098 882.712613,200.632319 1010.135,195.642503 C1095.08327,192.31596 1184.04574,201.299271 1277.02243,222.592438 C1307.61932,176.646011 1288.99609,156.002255 1221.15275,160.661169 C1119.38774,167.649541 1096.01761,216.249778 979.677703,230.30282 C863.337796,244.355861 749.08727,125.341884 702.472791,155.693484 C655.858312,186.045084 599.685244,330.951343 539.116297,348.605324 C478.436344,366.291661 400.398553,352.180927 305.249005,346.162778 C178.498984,338.145918 82.4086301,342.265698 16.9779438,358.522117 C37.491122,415.578123 76.6528995,442.744302 134.463276,440.020654 Z" id="Path-2" fill-opacity="0.178536" fill="#3A3A3A" transform="translate(654.132710, 295.462526) scale(-1, -1) rotate(-14.000000) translate(-654.132710, -295.462526) "></path>
            </g>
        </g>
    </g>
</svg>