<?xml version="1.0" encoding="UTF-8"?>
<svg width="2000px" height="2000px" viewBox="0 0 2000 2000" version="1.1" xmlns="http://www.w3.org/2000/svg" xmlns:xlink="http://www.w3.org/1999/xlink">
    <!-- Generator: Sketch 52.5 (67469) - http://www.bohemiancoding.com/sketch -->
    <title>tendrils-one</title>
    <desc>Created with Sketch.</desc>
    <g id="tendrils-one" stroke="none" stroke-width="1" fill="none" fill-rule="evenodd">
        <rect fill="#FFFFFF" x="0" y="0" width="2000" height="2000"></rect>
        <g id="Group" transform="translate(-164.000000, -5.000000)">
            <path d="M1948.60249,1261.79127 L1965.97135,1209.73506 C1857.69997,1319.81678 1783.60441,1393.23397 1743.6847,1429.98661 C1683.80512,1485.11557 1612.01014,1469.82954 1555.49703,1461.97481 C1521.86272,1457.3 1248.56122,1418.5657 1199.84957,1381.85884 C1183.37613,1369.44521 1114.89013,1338.72764 1098.92549,1265.58813 C1082.96085,1192.44862 1137.29096,1120.35012 1131.52898,1048.34261 C1125.76701,976.33509 1121.80837,917.331956 1043.57732,880.39925 C998.006531,858.885378 743.24541,1023.11277 511.698506,935.215562 C345.750552,872.220284 176.119397,546.471262 176.16676,546.455728 C176.834704,546.236649 164.075213,552.40882 137.888288,564.972243 C314.133403,723.89755 443.337263,822.7317 525.499866,861.474694 C819.430388,1000.07483 1035.0645,992.258177 1073.30283,1028.19548 C1218.23484,1164.40607 1166.72722,1389.29617 1240.19161,1426.71707 C1313.65601,1464.13796 1363.09626,1455.94245 1433.99461,1454.66465 C1504.89296,1453.38684 1627.34701,1415.64069 1705.32761,1393.8164 C1757.31468,1379.26687 1838.40631,1335.2585 1948.60249,1261.79127 Z" id="Path" fill-opacity="0.325017" fill="#3DCC4F" transform="translate(1051.929821, 1008.245480) rotate(-127.000000) translate(-1051.929821, -1008.245480) "></path>
            <path d="M197.966342,504.794758 L220.535589,496.298003 C222.437495,563.760958 230.684598,608.941232 245.276898,631.838826 C318.282763,746.39641 424.905883,802.940342 477.902147,847.633427 C561.87137,918.44679 680.137828,868.137034 759.407767,892.049367 C838.677706,915.961699 856.453042,959.45915 887.919787,961.988771 C968.330483,968.453012 1054.98946,869.651494 1113.21593,898.987835 C1171.4424,928.324177 1176.74218,980.650848 1174.88047,1048.54887 C1173.32748,1105.18736 1092.02879,1179.48538 1107.67415,1232.05742 C1132.7734,1316.39675 1239.8557,1374.60733 1279.37509,1375.93459 C1390.36024,1379.66203 1435.22459,1436.85185 1503.94379,1445.52001 C1630.66706,1461.50473 1661.34577,1466.54282 1725.45051,1445.79881 C1768.187,1431.96947 1839.53325,1347.49352 1939.48924,1192.37095 L1918.81909,1176.79488 C1931.62638,1257.35555 1907.34359,1303.91533 1845.97073,1316.47421 C1818.64015,1322.06693 1707.62775,1474.5616 1600.01081,1498.58784 C1540.16545,1511.94874 1514.06055,1440.58141 1468.48445,1412.2576 C1422.90836,1383.93379 1418.74888,1413.42666 1367.93918,1416.56422 C1317.12949,1419.70178 1199.66132,1337.99362 1156.37614,1227.00834 C1135.92686,1174.5754 1161.19013,1002.54958 1092.23851,940.928568 C1047.2144,900.69121 591.779526,995.259214 494.23613,936.005755 C429.207199,896.503449 330.450603,752.76645 197.966342,504.794758 Z" id="Path-2" fill-opacity="0.128536" fill="#3A3A3A" transform="translate(1068.727792, 998.267503) rotate(-127.000000) translate(-1068.727792, -998.267503) "></path>
            <path d="M229.872922,541.382197 C343.583569,492.357105 427.308323,466.51406 481.047185,463.853063 C561.655478,459.861566 627.784631,412.229595 687.41842,423.281587 C745.300562,434.008944 959.35338,492.528942 971.031155,569.866904 C976.10496,603.469005 1002.32823,714.681402 984.707345,782.356002 C977.426922,810.31713 938.009952,868.371574 930.679828,929.401709 C925.204314,974.99049 1003.68029,1037.51145 1026.45509,1073.61435 C1049.22989,1109.71725 1140.04476,1028.58694 1192.12365,1046.54064 C1219.63551,1056.02509 1347.78454,1090.02002 1453.46434,1156.09615 C1464.63122,1163.07822 1529.90778,1213.96272 1564.71365,1251.52178 C1599.51951,1289.08085 1740.68116,1433.56997 1756.12612,1478.1434 C1773.5827,1528.52227 1779.23959,1589.32714 1773.09678,1660.55802 C1780.93531,1651.68572 1784.92715,1647.23266 1785.07228,1647.19886 C1785.31634,1647.14363 1733.01051,1436.29746 1693.43038,1349.35595 C1653.85026,1262.41444 1586.68354,1322.28785 1549.36125,1303.22126 C1512.03895,1284.15466 1575.41523,1122.76273 1471.17307,1095.82867 C1366.93092,1068.89461 1340.91335,1098.95955 1316.36139,1115.46599 C1253.11196,1157.98896 939.911916,1062.59278 962.067956,994.102865 C995.285207,891.419959 1003.44599,806.67288 1003.44452,767.182939 C1003.44199,699.162159 965.532672,670.340855 956.779114,636.865191 C930.150196,535.029937 859.861422,448.304187 781.01745,427.503498 C702.173478,406.702809 565.800889,368.313853 473.640663,385.559441 C412.200513,397.056499 330.926327,462.871037 229.818108,583.003053 L229.872922,541.382197 Z" id="Path-2" fill-opacity="0.178536" fill="#3A3A3A" transform="translate(1007.445620, 1020.891261) scale(-1, -1) rotate(-141.000000) translate(-1007.445620, -1020.891261) "></path>
        </g>
    </g>
</svg>