<?xml version="1.0" encoding="UTF-8"?>
<svg width="2000px" height="2000px" viewBox="0 0 2000 2000" version="1.1" xmlns="http://www.w3.org/2000/svg" xmlns:xlink="http://www.w3.org/1999/xlink">
    <!-- Generator: Sketch 52.5 (67469) - http://www.bohemiancoding.com/sketch -->
    <title>tendrils-three</title>
    <desc>Created with Sketch.</desc>
    <g id="tendrils-three" stroke="none" stroke-width="1" fill="none" fill-rule="evenodd">
        <rect fill="#FFFFFF" x="0" y="0" width="2000" height="2000"></rect>
        <g id="Group" transform="translate(-327.000000, -56.000000)">
            <path d="M1414.08939,1635.13296 C1500.80025,1625.84134 1651.32458,1498.02741 1865.66237,1251.69116 L1907.77209,1272.42149 C1743.64242,1405.71663 1631.6482,1484.57969 1571.78943,1509.01068 C1482.00128,1545.65715 1265.50467,1543.35956 1197.92667,1595.67424 C1081.19174,1686.04314 1021.15673,1486.61782 901.141239,1457.39253 C779.691323,1427.81793 729.820405,1356.96564 721.150696,1300.68323 C718.438266,1283.07456 751.797502,1133.6133 729.512402,1029.78122 C707.227302,925.949136 602.817569,897.927586 511.590361,710.093374 C480.621922,646.330244 504.013183,500.867716 458.008576,457.113696 C427.338838,427.944349 343.325291,439.976528 205.967935,493.210233 L242.148603,450.181785 C441.864312,457.545497 565.505007,528.945522 613.070689,664.381862 C684.419212,867.536371 612.240776,928.479572 643.366498,1006.14825 C674.492219,1083.81694 762.879814,1236.41041 796.36008,1283.30661 C903.66014,1433.60306 866.847634,1508.66204 883.212083,1533.06411 C929.602573,1602.23991 1284.02308,1649.07038 1414.08939,1635.13296 Z" id="Path" fill-opacity="0.325017" fill="#3DCC4F" transform="translate(1056.870013, 1039.608625) rotate(-127.000000) translate(-1056.870013, -1039.608625) "></path>
            <path d="M1918.45463,1318.55995 L1914.40396,1256.05596 C1764.98031,1434.67922 1671.25901,1533.9975 1633.24006,1554.0108 C1576.21163,1584.03075 1478.82956,1564.81749 1395.36907,1572.31927 C1360.36315,1575.46574 1173.18782,1629.18641 1105.98597,1604.08036 C1038.78411,1578.97431 1011.06817,1464.87394 986.514333,1427.28308 C961.960493,1389.69222 870.753136,1429.63268 826.771907,1358.20102 C801.410673,1317.01083 809.664323,1140.71981 786.938044,1031.95009 C764.211765,923.180375 666.027612,971.663815 654.670753,903.281097 C643.313895,834.898379 725.310708,781.548118 708.743778,664.069886 C701.231104,610.796552 573.474828,578.260127 529.062026,498.51483 C499.453491,445.3513 405.969285,444.786343 248.609409,496.81996 L252.300189,461.541334 C277.296828,490.039732 311.128475,500.660979 353.795132,493.405075 C410.728353,483.722996 491.661887,418.867773 535.827002,441.299064 C642.106962,495.278244 653.823306,669.808158 657.670561,746.084168 C664.913746,889.688186 748.682415,1153.02551 759.735696,1187.70004 C781.654926,1256.46143 815.328744,1211.77476 881.440514,1317.89198 C947.552284,1424.0092 1148.66038,1669.79929 1270.36903,1644.63871 C1351.50812,1627.86499 1567.53666,1519.17207 1918.45463,1318.55995 Z" id="Path-2" fill-opacity="0.128536" fill="#3A3A3A" transform="translate(1083.532022, 1041.523528) rotate(-127.000000) translate(-1083.532022, -1041.523528) "></path>
            <path d="M299.858798,578.081584 L335.896723,607.93577 C378.867887,534.693787 424.897144,474.05169 473.984494,426.009479 C547.615519,353.946163 800.918034,433.525192 935.919199,416.019584 C1070.92036,398.513975 1198.19755,465.628421 1294.60715,551.61014 C1391.01675,637.591859 1378.69324,796.364899 1377.85347,887.120593 C1377.42999,932.887743 1342.89868,1057.84714 1367.35405,1190.43412 C1378.78678,1252.41766 1402.21274,1407.2471 1437.11226,1507.82463 C1472.01178,1608.40215 1480.91741,1636.97844 1494.94815,1654.30495 C1504.30197,1665.85596 1564.99884,1708.28352 1677.03876,1781.58763 L1676.49798,1732.83924 C1566.74328,1718.67758 1498.52665,1702.48403 1471.84809,1684.25857 C1431.83024,1656.92039 1439.73694,1607.15788 1447.34017,1577.93526 C1454.9434,1548.71263 1515.32904,1479.86096 1455.77739,1393.81189 C1396.22573,1307.76282 1266.46813,1267.90371 1302.42906,1165.1485 C1338.39,1062.3933 1445.11416,922.729629 1436.13847,839.922332 C1427.16278,757.115036 1376.01792,788.852866 1320.20373,706.353299 C1264.38955,623.853733 1117.47219,530.170488 1124.23923,471.47605 C1131.00628,412.781612 1100.65407,375.299758 1012.61917,344.301076 C953.929237,323.635288 716.342446,401.562124 299.858798,578.081584 Z" id="Path-2" fill-opacity="0.178536" fill="#3A3A3A" transform="translate(988.448778, 1061.319960) scale(-1, -1) rotate(-141.000000) translate(-988.448778, -1061.319960) "></path>
        </g>
    </g>
</svg>