<?xml version="1.0" encoding="UTF-8"?>
<svg width="2000px" height="2000px" viewBox="0 0 2000 2000" version="1.1" xmlns="http://www.w3.org/2000/svg" xmlns:xlink="http://www.w3.org/1999/xlink">
    <!-- Generator: Sketch 52.5 (67469) - http://www.bohemiancoding.com/sketch -->
    <title>Desktop HD</title>
    <desc>Created with Sketch.</desc>
    <g id="Desktop-HD" stroke="none" stroke-width="1" fill="none" fill-rule="evenodd">
        <rect fill="#FFFFFF" x="0" y="0" width="2000" height="2000"></rect>
        <g id="Group" transform="translate(-234.000000, -19.000000)">
            <path d="M992.398801,1214.37066 C988.892784,1178.87458 967.196804,1084.67262 946.945948,1001.76992 C938.557139,967.427921 779.227435,946.885716 731.222709,938.744426 C699.625867,933.385807 639.022589,995.719297 585.308863,982.906116 C557.415932,976.252376 438.904214,984.676009 434.654976,940.984842 C427.802114,870.522887 403.341024,864.007363 378.110746,814.907862 C350.630085,761.428993 337.452227,726.156743 329.029721,673.713457 C324.111501,643.089839 270.929866,540.216899 238.775062,494.792192 C217.338526,464.509054 211.071783,439.85311 219.974833,420.824359 L206.184875,417.508083 C261.481452,496.105792 283.255688,552.883018 271.507584,587.839758 C253.885426,640.27487 394.990418,706.330376 396.846331,790.0449 C398.702243,873.759425 401.440709,992.814059 478.816771,999.061366 C491.74701,1000.10535 534.23558,974.346817 549.810219,974.379818 C627.436042,974.544298 703.709234,959.419678 761.115101,930.21806 C830.038729,895.157507 870.319643,890.10621 890.525303,953.10846 C911.481443,1018.45074 952.081779,1043.37808 979.320228,1089.99356 C1006.55868,1136.60903 1033.93739,1195.81724 1030.52994,1233.46161 C1028.97373,1250.65418 1020.27127,1315.09089 1030.52616,1331.28006 C1045.21848,1354.47453 1139.20092,1446.54584 1219.76232,1518.42732 C1276.38933,1568.95317 1274.77215,1604.79029 1346.35995,1594.96841 C1417.94775,1585.14653 1516.44598,1464.01085 1646.51228,1450.07342 C1733.22315,1440.7818 1794.97542,1425.3843 1831.76909,1403.88092 L1838.05273,1417.42641 C1762.44445,1470.91536 1706.83653,1503.24749 1671.22896,1514.42278 C1519.24632,1562.12192 1504.5971,1445.00646 1395.15248,1535.13454 C1285.70786,1625.26262 1104.15557,1562.86962 1093.12561,1457.36056 C1082.09566,1351.8515 999.32311,1284.47466 992.398801,1214.37066 Z" id="Path" fill-opacity="0.325017" fill="#3DCC4F" transform="translate(1022.118800, 1007.050960) rotate(-127.000000) translate(-1022.118800, -1007.050960) "></path>
            <path d="M974.960921,1061.23101 C966.53968,1022.26201 953.989952,979.93078 869.836465,936.499294 C785.682978,893.067807 671.505635,1038.2375 601.265677,1025.45073 C550.082055,1016.13305 472.354046,989.255104 453.498357,901.270895 C446.478136,868.513216 345.392781,754.568202 322.383753,724.544234 C294.624467,688.321762 346.517641,633.92351 314.20954,572.413725 C297.277056,540.176814 271.238776,509.266284 259.865313,489.744676 C254.473789,480.490572 244.445438,459.587297 229.780258,427.034851 L226.230971,439.403502 C251.444208,461.251835 269.477547,483.17289 280.330988,505.166668 C299.775785,544.570261 298.313106,538.370672 297.569604,574.991245 C296.501667,627.591633 349.714336,660.637423 364.326719,707.736276 C389.608609,789.225237 432.869697,980.354577 483.693387,1018.65297 C537.24612,1059.00785 630.025639,899.459293 760.901543,966.705114 C850.497183,1012.74057 1050.23495,1010.58645 1047.61146,1083.35398 C1046.56394,1112.40892 1011.00803,1161.13217 1021.22769,1191.45383 C1036.60297,1237.07217 1101.63742,1266.55058 1113.49343,1328.15021 C1133.2299,1430.69398 1173.76823,1484.28457 1211.45102,1531.18291 C1249.13381,1578.08126 1332.68675,1613.11344 1354.26986,1602.34874 C1375.85297,1591.58405 1417.35529,1550.35184 1462.33474,1509.79594 C1507.31419,1469.24003 1519.39082,1522.649 1706.4801,1485.1146 C1732.61988,1479.87036 1773.65752,1471.00206 1829.59302,1458.50972 L1823.18535,1467.01298 C1801.19782,1467.33645 1762.8308,1465.83507 1708.08429,1462.50886 C1625.96452,1457.51953 1539.95158,1516.89523 1509.16516,1536.93111 C1479.93795,1555.95224 1362.33946,1559.88594 1286.66969,1560.45075 C1211.3147,1561.01322 1167.10156,1550.88377 1144.22178,1505.95739 C1121.34199,1461.03102 1052.12035,1417.30716 1043.82227,1319.38015 C1040.18583,1276.46588 1058.24253,1210.89397 1053.04224,1176.20559 C1046.37587,1131.73781 983.743743,1101.87322 974.960921,1061.23101 Z" id="Path-2" fill-opacity="0.128536" fill="#3A3A3A" transform="translate(1027.911996, 1015.670165) rotate(-127.000000) translate(-1027.911996, -1015.670165) "></path>
            <path d="M297.780467,409.151353 C349.560066,400.408175 405.62923,389.206037 465.987959,375.544938 C519.336398,363.470491 649.806358,347.481981 742.811756,333.093803 C799.818858,324.274656 748.511582,392.30785 865.063398,389.801495 C913.810352,388.753231 959.930952,447.774642 967.934161,533.64351 C975.93737,619.512378 1071.63468,620.319658 1076.87054,723.218657 C1078.32747,751.851336 1067.30076,990.255386 1063.50822,1034.24601 C1059.71568,1078.23663 1130.66567,1064.11055 1171.24331,1089.89894 C1185.66554,1099.06472 1274.351,1146.99042 1403.5229,1116.24529 C1532.6948,1085.50016 1559.85107,1258.84407 1564.63411,1315.20106 C1568.96567,1366.23852 1574.91707,1573.70049 1593.43871,1604.49922 C1605.78647,1625.0317 1621.0631,1671.03161 1639.26859,1742.49893 L1633.94725,1751.34576 C1631.70318,1654.49807 1616.63682,1587.74119 1588.74817,1551.07512 C1546.91518,1496.07602 1557.94165,1372.34192 1533.41126,1286.99949 C1508.88087,1201.65706 1538.03734,1113.08745 1436.20328,1100.3256 C1334.36922,1087.56376 1208.02881,1118.87648 1186.41617,1108.63585 C1158.80154,1095.55134 1101.37767,1110.93158 1092.31143,1078.72522 C1080.48032,1036.69713 1079.75293,978.632423 1063.28595,916.656291 C1037.40701,819.256725 1030.68957,584.7678 1021.0887,543.059863 C998.815302,446.300178 942.971857,416.815735 924.233827,397.788121 C882.970725,355.887325 686.453466,363.285671 657.442685,368.783395 C577.449188,383.942661 569.4812,359.455265 506.635188,355.475298 C422.91715,350.173529 353.29891,373.051322 297.780467,424.108677 L297.780467,409.151353 Z" id="Path-2" fill-opacity="0.178536" fill="#3A3A3A" transform="translate(968.524530, 1041.825051) scale(-1, -1) rotate(-141.000000) translate(-968.524530, -1041.825051) "></path>
        </g>
    </g>
</svg>